<svg width="29" height="36" viewBox="0 0 29 36" fill="none" xmlns="http://www.w3.org/2000/svg">
<g >
<path d="M14.1351 6.32421L16.0847 3.16204L18.2779 0.972854L21.0805 0.364746L22.7863 1.33772L23.883 2.55394L23.5174 4.25664L22.7863 6.08096L18.1561 9.85123L14.1351 12.0404L13.7695 9.1215L14.1351 6.32421Z" fill="#F9E16D"/>
<path d="M14.1355 6.44579L12.6733 3.28363L10.48 1.09444L7.67752 0.486328L5.72794 1.33768L4.875 2.67552V4.37822L5.97164 6.20254L10.6019 9.97282L14.1355 12.0404L14.3792 11.0674L14.0137 10.2161L14.501 9.30698L14.0137 8.14849L14.501 7.29714L14.1355 6.44579Z" fill="#4B8EE6"/>
<path fill-rule="evenodd" clip-rule="evenodd" d="M0.852941 19.6054C0.381874 19.6054 0 19.2242 0 18.754V14.8029C0 13.258 1.25473 12.0056 2.80252 12.0056H28.9556V12.7353H14.7564V35.0465H23.8743C25.0182 35.0465 25.9457 34.1207 25.9457 32.9789V29.2091H26.6768V32.9789C26.6768 34.5238 25.422 35.7762 23.8743 35.7762H5.13212C3.58435 35.7762 2.32961 34.5238 2.32961 32.9789L2.32961 19.6054H0.852941ZM14.0253 35.0465V19.6054H3.06069V32.9789C3.06072 34.1207 3.98811 35.0465 5.13212 35.0465H14.0253ZM14.0253 18.8756V12.7353H2.80252C1.6585 12.7353 0.731092 13.661 0.731092 14.8029V18.754C0.731092 18.8212 0.785647 18.8756 0.852941 18.8756H14.0253Z" fill="#151515"/>
<path fill-rule="evenodd" clip-rule="evenodd" d="M23.5031 2.55683C23.1413 1.59114 22.2132 0.982058 21.1032 0.791993C19.9924 0.601796 18.7724 0.847586 17.9171 1.51063C17.7985 1.60255 17.6859 1.70313 17.5807 1.81307C16.4852 2.95862 15.1437 5.24085 14.599 6.23678C14.5666 6.29908 14.516 6.35276 14.4496 6.38888C14.2831 6.47951 14.0771 6.42748 13.9726 6.27422C13.9709 6.27178 13.9693 6.26933 13.9677 6.26685L13.9675 6.26646C13.967 6.26578 13.9666 6.26509 13.9661 6.26441C13.9618 6.25755 13.9576 6.2505 13.9537 6.24328C13.4137 5.25522 12.0678 3.01714 10.9684 1.86762C10.8633 1.75768 10.7506 1.6571 10.6321 1.56518C9.77676 0.90214 8.55673 0.65635 7.44596 0.846547C6.33599 1.03661 5.40787 1.64569 5.04603 2.61139C4.83849 3.16525 4.85404 3.88296 5.3969 4.80408C6.16713 6.11107 7.81389 7.57506 9.60731 8.88984C11.3199 10.1454 13.1219 11.2333 14.3082 11.8789C15.4911 11.2335 17.2762 10.1332 18.9729 8.86456C20.7487 7.53667 22.3808 6.05851 23.1523 4.74954C23.6951 3.82841 23.7106 3.11069 23.5031 2.55683ZM14.3089 12.6389C14.378 12.6453 14.4496 12.6321 14.5153 12.5969C15.7246 11.9478 17.6158 10.791 19.4112 9.44859C21.1952 8.11462 22.9316 6.56324 23.7824 5.11952C24.4151 4.04596 24.4867 3.09848 24.1879 2.30121C23.7085 1.02164 22.5087 0.292264 21.2268 0.0727706C19.9457 -0.146588 18.5101 0.12697 17.4687 0.934295C17.3231 1.04709 17.1834 1.1717 17.0519 1.30921C16.0665 2.33959 14.9312 4.17712 14.2735 5.32365C13.6144 4.18736 12.4808 2.39221 11.4973 1.36377C11.3658 1.22625 11.226 1.10164 11.0805 0.988849C10.0391 0.181523 8.6034 -0.092034 7.32236 0.127325C6.04051 0.346816 4.84069 1.0762 4.36126 2.35576C4.06254 3.15304 4.13406 4.10052 4.76675 5.17408C5.61874 6.61979 7.37422 8.15811 9.17453 9.47795C10.9871 10.8068 12.8945 11.9492 14.1015 12.597C14.1675 12.6324 14.2395 12.6455 14.3089 12.6389Z" fill="#151515"/>
</g>
<defs>
<clipPath >
<rect width="29" height="36" fill="white"/>
</clipPath>
</defs>
</svg>
